/* XPM */
static char *_3e397d7f0c147e0d6b8912b853dcdceaG2h8glpENKTLd6n[] = {
/* columns rows colors chars-per-pixel */
"32 32 33 1 ",
"  c #090406",
". c #10060A",
"X c #14070D",
"o c #170910",
"O c #1A0910",
"+ c #1B0910",
"@ c #1B0911",
"# c #1C0A11",
"$ c #1E0B13",
"% c #1C0B14",
"& c #1D0B14",
"* c #1F0C16",
"= c #200C14",
"- c #210C15",
"; c #220D17",
": c #240D17",
"> c #260F1A",
", c #270F1A",
"< c #280F1B",
"1 c #290F1B",
"2 c #29101B",
"3 c #2A101C",
"4 c #2D111F",
"5 c #2D121F",
"6 c #2F1220",
"7 c #2F1321",
"8 c #311322",
"9 c #321422",
"0 c #331423",
"q c #331424",
"w c #341424",
"e c #341524",
"r c #351525",
/* pixels */
"********#.#*O******X   O&***O*%O",
"rrrrrrr70>077rrrrrq3rrrrrrq71q0q",
"rrrrrrr50r8rrr7rrrrrrrrrrrrrr7rr",
"r8rrrrrrrr0rrr8rrrqrrrrrrrrrrrrr",
"rrrrrrrrrrrrrrrrrrrr7rrrrrrrrrrr",
"3rrrrr8rrrrr1;18rrrrrrrrrrrrrrrr",
"5rrrr8#rrrr&#O>;q00rrrrrrrrrrrrr",
"rrrrrr3q0r0&O-08r72rrrrr>0rrrrr7",
"rrrr8211O15#;1OO>r0*055q#O8qrrrr",
"7rrr1O;5OO,:OOOOO>0#O::#r37rrrrr",
"rrrrr55>OOOOOOOO#O++O#OOrrrrrr0r",
"rrrrrrr8;OOOOOOOOO+O##OO0rrrrq,5",
"rr8&58rr2OOOOOOOOOOOOOO0rrrrrrrr",
"rrr;#;r8O#OOOOOOOOOOOO#0rrrrrrrr",
"rrrrrrr;OOOOOOOOOOOOOOO;r;,0rrrr",
"rrrrrrr81OOOOOOOOOOOOOO5r;O5r;rr",
"rrrrrrrrw++o+o+oOOOO++&8q88rrrrr",
"r8rrrr851+++++++OOOO+o&+rw#8rrrr",
"rrrrrr0;#o+++o++OOOO#++#7888rrrr",
"8508rrr>o+o+++o+OOOO#X+O+>wrrrrr",
"81rrr8>1+o++++++OOOOOOO#O;rrrr8;",
"rr8rrr1r1++oo+o+OOOOOO#&88rrrrr0",
"rrrrrrw87++++++oOOOOOO;rrrr50rrr",
"rrrrrr1;&++oo+++OOOOOO-1rrr0rrrr",
"rr8rr8O#OO#r-#o+1#8>OOO#rrrrrrrr",
"r5O-r0O1885081++O&08O37r80rrrrrr",
"r8#:rrr5rr87r-#;0r>;#>rr51rr8rrr",
"rrwr88r8>r08r8#8rr>181rr85rrrr0r",
"rrrr##0378rrrrrrrrrrrrrrrrrr80r8",
"rrrrr3rrrrrrrrr->rrrrrrrrrrrrr81",
"r88rrrrrrrrrrrrrrrrr0rrrrrrrrrrr",
"01rrrrrrrrrrr8rrrrrrrrrrrrrrrr8r"
};
