/* XPM */
static char *_a27f9fd0e284f28c6e9bf65a9bcc0aenwX5TehBUpCeNbBy[] = {
/* columns rows colors chars-per-pixel */
"32 32 9 1 ",
"  c None",
". c gray3",
"X c #533406",
"o c #643F08",
"O c #7D5821",
"+ c #888E00",
"@ c #FF9A06",
"# c #F6FF13",
"$ c #F9FF62",
/* pixels */
"                                ",
"                                ",
"            @@+   @@            ",
"          @@###+@@@@            ",
"        +$##########$+          ",
"       .@+$#######$++@.         ",
"      .OO@+$#####$+@@OO.        ",
"       .O@@@@@@@@@@OOO.         ",
"        .OOOOOOOOOOOO.          ",
"         ............           ",
"        .ooooo.o.XXXX.          ",
"        .ooo......XXX.          ",
"       ..ooo......oXX..         ",
"      ..oO..OO.o.o..XX..        ",
"      .ooO..OO.o.o..XXX.        ",
"     ..ooO..OO.o.ooooXX..       ",
"     .oooO..OO.o.oooooXX.       ",
"     .oooOOO......ooooXX.       ",
"     .oooOOO......ooooXX.       ",
"     .oooooooo.o.o..ooXX.       ",
"     .oooooooo.o.o..ooXX.       ",
"     ..ooo..oo.o.o..oXX..       ",
"      .ooo..oo.o.o..XXX.        ",
"      ..oooo......oXXX..        ",
"      ####oo....########        ",
"      ####oooo.o########        ",
"    @@@@@@..@@@@@@@.@@@@@@@     ",
"    @@@@@@  @@@@@@@ @@@@@@@     ",
"                                ",
"                                ",
"                                ",
"                                "
};
