/* XPM */
static char *bbc5846596b34bd3eadb18b4e27e5e98wDD705PVlQd7h4rC[] = {
/* columns rows colors chars-per-pixel */
"32 32 207 2 ",
"   c None",
".  c #161522",
"X  c #171523",
"o  c #212131",
"O  c #232132",
"+  c #242233",
"@  c #242334",
"#  c #252434",
"$  c #272536",
"%  c #262537",
"&  c #272636",
"*  c #262637",
"=  c #272637",
"-  c #202539",
";  c #21253C",
":  c #22273E",
">  c #23293F",
",  c #252A42",
"<  c #323241",
"1  c #383947",
"2  c #393948",
"3  c #3C4567",
"4  c #3D476A",
"5  c #3D486A",
"6  c #3F4A6C",
"7  c #434C6B",
"8  c #404A6C",
"9  c #404B6D",
"0  c #414C6D",
"q  c #414C6E",
"w  c #424D6E",
"e  c #424D6F",
"r  c #434E6F",
"t  c #575764",
"y  c #5E5C63",
"u  c #5F5E64",
"i  c #555A6F",
"p  c #444F70",
"a  c #455172",
"s  c #465172",
"d  c #495575",
"f  c #4B5777",
"g  c #4C5776",
"h  c #4C5878",
"j  c #4F5C7B",
"k  c #505671",
"l  c #505C7B",
"z  c #515C7C",
"x  c #505D7C",
"c  c #515D7C",
"v  c #515E7D",
"b  c #53607F",
"n  c #54617F",
"m  c #FDB43A",
"M  c #FDB63B",
"N  c #556280",
"B  c #556281",
"V  c #576381",
"C  c #576482",
"Z  c #576582",
"A  c #586583",
"S  c #5B6582",
"D  c #596684",
"F  c #5A6885",
"G  c #5B6986",
"H  c #5E6987",
"J  c #5F6C88",
"K  c #646E86",
"L  c #606C89",
"P  c #666F89",
"I  c #65708D",
"U  c #67748F",
"Y  c #68738E",
"T  c #69758E",
"R  c #70788F",
"E  c #6C7892",
"W  c #6F7A93",
"Q  c #6D7894",
"!  c #6D7A94",
"~  c #6E7A94",
"^  c #6F7B94",
"/  c #717A92",
"(  c #737C94",
")  c #737C95",
"_  c #717C97",
"`  c #727E97",
"'  c #717E99",
"]  c #748098",
"[  c #748099",
"{  c #76849D",
"}  c #77849E",
"|  c #7A869D",
" . c #7B86A0",
".. c #7A88A1",
"X. c #7E8AA0",
"o. c #7F8AA0",
"O. c #7F8CA4",
"+. c #7F8CA5",
"@. c #80889C",
"#. c #818AA0",
"$. c #838BA0",
"%. c #838CA1",
"&. c #828EA3",
"*. c #838EA4",
"=. c #818EA6",
"-. c #838FA7",
";. c #8C94A7",
":. c #8490A8",
">. c #8792AA",
",. c #8794AB",
"<. c #8B95A9",
"1. c #8B96AA",
"2. c #8C97AC",
"3. c #8E99AC",
"4. c #939CAF",
"5. c #949DAD",
"6. c #8F9BB2",
"7. c #8F9CB3",
"8. c #8A9AB5",
"9. c #8B9BB5",
"0. c #95A0B6",
"q. c #94A1B6",
"w. c #99A1B2",
"e. c #9EA5B2",
"r. c #99A3B5",
"t. c #99A3B6",
"y. c #9DA7B7",
"u. c #97A3B8",
"i. c #98A4B9",
"p. c #9AA7BC",
"a. c #9CA8BD",
"s. c #A0A7B7",
"d. c #A2ABBA",
"f. c #A6AFBD",
"g. c #B4B7BC",
"h. c #B4B7BD",
"j. c #B5B8BE",
"k. c #B6B8BE",
"l. c #B6B9BE",
"z. c #9FABC0",
"x. c #9FACC0",
"c. c #A4B0C4",
"v. c #A5B1C4",
"b. c #A5B1C5",
"n. c #A5B2C5",
"m. c #A7B3C6",
"M. c #A7B3C7",
"N. c #A7B4C7",
"B. c #ABB3C1",
"V. c #A8B3C7",
"C. c #A9B5C8",
"Z. c #AAB7C9",
"A. c #ABB8CA",
"S. c #ADBACC",
"D. c #ADBACE",
"F. c #ADBBCE",
"G. c #B3BAC5",
"H. c #B2BAC6",
"J. c #BCBCC1",
"K. c #B8BEC7",
"L. c #B7BDC8",
"P. c #B0BCCE",
"I. c #B1BDCF",
"U. c #B9C0CB",
"Y. c #BAC1CB",
"T. c #BDC4CE",
"R. c #B5C0D1",
"E. c #B5C2D3",
"W. c #B8C4D5",
"Q. c #BDC9D9",
"!. c #BFCAD8",
"~. c #BECADA",
"^. c #BECADB",
"/. c #BFCBDC",
"(. c #C3C0C4",
"). c #C5CCD5",
"_. c #C7CCD4",
"`. c #C7CDD5",
"'. c #C0CCDB",
"]. c #C4CEDB",
"[. c #C0CBDC",
"{. c #C0CCDC",
"}. c #C4CFDC",
"|. c #C6CFDC",
" X c #C9D0D7",
".X c #CBD1D8",
"XX c #CDD3DA",
"oX c #D1D7DD",
"OX c #CED7E2",
"+X c #CFD8E3",
"@X c #CFD9E3",
"#X c #D7DDE2",
"$X c #DFE5EB",
"%X c #E2E6E9",
"&X c #E2E7E9",
"*X c #E3E7EA",
"=X c #E4E8EB",
"-X c #E5E9EC",
";X c #E4EAED",
":X c #E8ECEE",
">X c #E9EEEF",
",X c #EAEEEF",
"<X c #EBEFF0",
"1X c #EBEFF1",
"2X c #ECEFF1",
"3X c #ECF0F0",
"4X c #ECF0F1",
/* pixels */
"                                                                ",
"                                                                ",
"                                                                ",
"                                                                ",
"                                                                ",
"                                                                ",
"                      4X4X4X4X4X4X4X4X4X4X4X2X                  ",
"                >X4X4X4X4X4X1X1X4X4X4X4X4X4X4X4X4X              ",
"              '.}.XXXXXXXXXXXXXXXXXXXXXXXXXXXXXX|.[.            ",
"              H Q b.b.b.n.n.n.n.b.c.n.n.b.b.b.b.,.{             ",
"              G J z.s s a a s s 4 s a a s a s 0.O.~.            ",
"              G ' H G G G G G G 6 G G G G G G z O.=.            ",
"              G ' H H G G G G G p D G G G G G x +.|             ",
"              G ' ' N n N n N N 6 B N N N N N I +.{             ",
"              G ' [.i.i.i.i.i.i.i.i.i.i.i.i.u.~.+.{             ",
"              9 Y L._.2X4X4X4X4X4X4X4X4X4X4X#X).3. .            ",
"              S r V H S s.-X=X%X:X%X*X1X X| -XoX3.C.            ",
"              b 6 f H G G 0.6.| I. .>.@X4XG.f.d.] I.            ",
"              x r b y 7 N M.G G ' G G x.| L.u U.U E.            ",
"              x 6 6 M t x b.l ! 4.*.j a.;.k M i E E.            ",
"              V 5 p 3 r :.C.r w.I @.f i.~.T.R Y.| A.            ",
"              G 5 r b p -.m.r / ) ;.6 i.|. X| ).:.A.            ",
"              8.r f d j b.C.h *.h ( j a.F.r.B.r.] 3X3X          ",
"            8.8.r b r D 7.Z.! ^ ( ( Q b.*.1.XX*.T >X4X          ",
"            F.F.r j s V S.~.%X4X4X4X;X{.N.r.L.>X3.+X#X          ",
"            {.{.R.5.e.j.j.j.j.j.l.l.j.j.G.j.J.(.| ~.{.          ",
"            T 2 < + = = # = = = = = = = $ $ = # o 1 K           ",
"              X X + = = $ $ $ = = = # $ $ $ = # X X             ",
"              X X                               X X             ",
"              X X                               X X             ",
"      , , , , X X - , , , , , , , , , , , , , ; X X ;           ",
"                                                                "
};
