/* XPM */
static char *_500ccff92b74c9483bd6cdf16f1f66bMmlV5MS80AR0DIVE[] = {
/* columns rows colors chars-per-pixel */
"32 32 109 2 ",
"   c None",
".  c #3E3B3C",
"X  c #413B3B",
"o  c #493B3A",
"O  c #4B3A3A",
"+  c #4A3B3A",
"@  c #4D3A39",
"#  c #4D3E3E",
"$  c #543A38",
"%  c #533D3B",
"&  c #583A38",
"*  c #673935",
"=  c #683935",
"-  c #693935",
";  c #6F3B35",
":  c #783932",
">  c #4D403F",
",  c #4D4647",
"<  c #4E4848",
"1  c #524040",
"2  c #794742",
"3  c #794E4A",
"4  c #7A6765",
"5  c #7B6D6C",
"6  c #87382F",
"7  c #8D382E",
"8  c #8D382F",
"9  c #9A372C",
"0  c #92382E",
"q  c #96382D",
"w  c #A3372B",
"e  c #A4372B",
"r  c #AA3729",
"t  c #AC3729",
"y  c #AB3B2F",
"u  c #B73627",
"i  c #B13728",
"p  c #AE3D30",
"a  c #E7341F",
"s  c #F2331C",
"d  c #F3341C",
"f  c #F3341D",
"g  c #F3341E",
"h  c #F2351E",
"j  c #F3351E",
"k  c #F2361F",
"l  c #F4341D",
"z  c #C33625",
"x  c #C53625",
"c  c #C63625",
"v  c #CE3523",
"b  c #D43522",
"n  c #D93521",
"m  c #D93522",
"M  c #D93C2A",
"N  c #EF3E29",
"B  c #EF3E2A",
"V  c #EE3F2B",
"C  c #F23620",
"Z  c #F13922",
"A  c #F13B25",
"S  c #F03D27",
"D  c #F03D28",
"F  c #9F4238",
"G  c #C84B3D",
"H  c #EF402B",
"J  c #F0402B",
"K  c #ED4632",
"L  c #ED4633",
"P  c #EC4735",
"I  c #EC4835",
"U  c #EC4936",
"Y  c #984E46",
"T  c #99544D",
"R  c #985851",
"E  c #9A7E7B",
"W  c #DC5646",
"Q  c #D65B4D",
"!  c #E85341",
"~  c #E75949",
"^  c #E45B4B",
"/  c #E65B4B",
"(  c #E75B4B",
")  c #E45E4E",
"_  c #E45E4F",
"`  c #E45F50",
"'  c #F6624F",
"]  c #E56151",
"[  c #E46052",
"{  c #E0665A",
"}  c #E06A5D",
"|  c #F56250",
" . c #F66250",
".. c #D76C60",
"X. c #D97A6F",
"o. c #DA7B6F",
"O. c #DA7870",
"+. c #DA7A70",
"@. c #DB7A70",
"#. c #DC7A70",
"$. c #F77666",
"%. c #F77667",
"&. c #9B8785",
"*. c #DBADA7",
"=. c #DCBCB9",
"-. c #FBC4BD",
";. c #FCC4BD",
":. c #FCD7D2",
">. c #FDD7D2",
/* pixels */
"                                                                ",
"                        ] %.-.s ' :.J +.                        ",
"                      ` A %.;.f  .:.f L o.                      ",
"                    _ S f %.;.f  .:.f C P o.                    ",
"                    N f f %.;.f  .:.j j f P                     ",
"                    f f c 3 4 : 2 5 8 j j d                     ",
"                    f c - . . . . . + 0 d d                     ",
"                    f r . . . . . . . & d d                     ",
"                    U r . . . . . . . & Z /                     ",
"                    / v q R E q Y &.q e S #.                    ",
"                    G z f %.;.f  .:.d a y ~                     ",
"                    w 6 f %.;.f  .:.d n $ j                     ",
"                    w 6 f %.;.f  .:.d m $ d                     ",
"                    w 6 f %.;.f  .:.d m $ s                     ",
"                    F 6 f %.;.f  .:.d m % U                     ",
"                    T 6 f %.;.f  .:.d m 1 {                     ",
"                    w 6 f %.;.f  .:.d m $ f                     ",
"                    w 6 f %.;.f  .:.d m $ f                     ",
"                  N p 8 b ..*.b Q =.m z ; N   f                 ",
"                  ! W 9 . . . . . . . $ M } j                   ",
"                    t O . . . . . . . X * g                     ",
"                    f i + . . . . . X - f s                     ",
"                    f f u > , @ # < - g f d                     ",
"                    f f f %.;.f  .>.g g f d                     ",
"                    f f f %.;.f  .:.f f d d                     ",
"                    f f f %.;.f  .:.f f d j                     ",
"                    f f f %.;.f  .:.f f d d                     ",
"                    f f f %.;.f  .:.f f f f                     ",
"                    / f s $.;.s  .:.j d D +.                    ",
"                      _ s $.;.s  .:.j D #.                      ",
"                        / $.:.s  .>.D #.                        ",
"                                                                "
};
