/* XPM */
static char *_d98bcfc8b9548b79a4d9b10f802d10bohVFNJdoLgo70w83[] = {
/* columns rows colors chars-per-pixel */
"32 32 109 2 ",
"   c None",
".  c #3E3B3C",
"X  c #413B3B",
"o  c #493B3A",
"O  c #4B3A3A",
"+  c #4A3B3A",
"@  c #4D3A39",
"#  c #4D3E3E",
"$  c #543A38",
"%  c #533D3B",
"&  c #583A38",
"*  c #673935",
"=  c #683935",
"-  c #693935",
";  c #6F3B35",
":  c #783932",
">  c #4D403F",
",  c #4D4647",
"<  c #4E4848",
"1  c #524040",
"2  c #794742",
"3  c #794E4A",
"4  c #7A6765",
"5  c #7B6D6C",
"6  c #87382F",
"7  c #8D382E",
"8  c #8D382F",
"9  c #9A372C",
"0  c #92382E",
"q  c #96382D",
"w  c #A3372B",
"e  c #A4372B",
"r  c #AA3729",
"t  c #AC3729",
"y  c #AB3B2F",
"u  c #B73627",
"i  c #B13728",
"p  c #AE3D30",
"a  c #E7341F",
"s  c #F2331C",
"d  c #F3341C",
"f  c #F3341D",
"g  c #F3341E",
"h  c #F2351E",
"j  c #F3351E",
"k  c #F2361F",
"l  c #F4341D",
"z  c #C33625",
"x  c #C53625",
"c  c #C63625",
"v  c #CE3523",
"b  c #D43522",
"n  c #D93521",
"m  c #D93522",
"M  c #D93C2A",
"N  c #EF3E29",
"B  c #EF3E2A",
"V  c #EE3F2B",
"C  c #F23620",
"Z  c #F13922",
"A  c #F13B25",
"S  c #F03D27",
"D  c #F03D28",
"F  c #9F4238",
"G  c #C84B3D",
"H  c #EF402B",
"J  c #F0402B",
"K  c #ED4632",
"L  c #ED4633",
"P  c #EC4735",
"I  c #EC4835",
"U  c #EC4936",
"Y  c #984E46",
"T  c #99544D",
"R  c #985851",
"E  c #9A7E7B",
"W  c #DC5646",
"Q  c #D65B4D",
"!  c #E85341",
"~  c #E75949",
"^  c #E45B4B",
"/  c #E65B4B",
"(  c #E75B4B",
")  c #E45E4E",
"_  c #E45E4F",
"`  c #E45F50",
"'  c #F6624F",
"]  c #E56151",
"[  c #E46052",
"{  c #E0665A",
"}  c #E06A5D",
"|  c #F56250",
" . c #F66250",
".. c #D76C60",
"X. c #D97A6F",
"o. c #DA7B6F",
"O. c #DA7870",
"+. c #DA7A70",
"@. c #DB7A70",
"#. c #DC7A70",
"$. c #F77666",
"%. c #F77667",
"&. c #9B8785",
"*. c #DBADA7",
"=. c #DCBCB9",
"-. c #FBC4BD",
";. c #FCC4BD",
":. c #FCD7D2",
">. c #FDD7D2",
/* pixels */
"                                                                ",
"                        @.H :. .d -.%.[                         ",
"                      #.B C >. .s ;.%.d )                       ",
"                    @.D d d >. .s :.%.d g ^                     ",
"                    d d g g >. .s ;.$.l s l                     ",
"                    d d d g >. .s ;.$.s l l                     ",
"                    d d g d >. .s ;.$.s l l                     ",
"                    d g d g >. .s ;.$.s l l                     ",
"                    d d g g >.' g ;.%.C d d                     ",
"                    d d g = < # @ , > u d d                     ",
"                    d d = X . . . . . O i d                     ",
"                    d * X . . . . . . . O t                     ",
"                  g } M $ . . . . . . . 9 W !                   ",
"                g   B ; z b =.Q b *...b 7 p B                   ",
"                    g $ n d >. .g ;.%.g 6 w                     ",
"                    g $ n d >. .g ;.$.g 6 e                     ",
"                    { % n g >. .g ;.$.g 6 T                     ",
"                    P % n g >. .d ;.$.g 6 F                     ",
"                    d $ n g >. .g ;.$.g 6 e                     ",
"                    d $ n g :. .d ;.$.g 6 e                     ",
"                    d $ b g :. .g ;.$.g 6 w                     ",
"                    / p C C :.' d ;.$.g z G                     ",
"                    @.B e q &.Y q E R q v ^                     ",
"                    ^ C & . . . . . . . r I                     ",
"                    d d & . . . . . . X r d                     ",
"                    d d 0 o . . . . . = x d                     ",
"                    d d d 8 5 2 : 4 3 x d d                     ",
"                    P C d d >. .g ;.%.C d B                     ",
"                    o.P C d >. .g ;.$.g S )                     ",
"                      o.P d >. .g ;.$.A `                       ",
"                        @.H >.' g -.$.]                         ",
"                                                                "
};
